<svg width="429.00000000000006" height="80.56829268292685" viewBox="0 0 409.99999999999994 77" class="looka-1j8o68f"><defs id="SvgjsDefs1260"></defs><g id="SvgjsG1261" featurekey="symbolContainer" transform="matrix(1,0,0,1,0,0)" fill="#3dd2cc"><rect width="75" height="77" rx="8"></rect></g><g id="SvgjsG1262" featurekey="monogramFeature-0" transform="matrix(1.066031999875446,0,0,1.066031999875446,19.98603730190917,-2.2446263216851072)" fill="#111111"><path d="M0.72 16.560000000000002 l0 0 c0 -0.06 6.06 -0.18 12.78 -0.18 c-1.38 9.66 -2.76 27 3.78 31.8 c0.9 0.66 2.22 0.48 2.82 -0.42 c0.66 -0.9 0.48 -2.22 -0.42 -2.82 c-5.1 -3.78 -3.48 -19.8 -2.16 -28.62 c7.2 -0.12 13.98 -0.18 14.04 -0.12 c1.92 1.74 1.44 41.7 0.18 42.9 c-1.26 1.08 -30.42 1.38 -31.2 0 c-1.2 -2.22 0 -42.48 0.18 -42.54 z"></path></g><g id="SvgjsG1263" featurekey="nameFeature-0" transform="matrix(0.8314855956208193,0,0,0.8314855956208193,93.00443409473016,17.354765187679)" fill="#ffffff"><path d="M18.2 12 l5.84 0 l0 17.84 c0 6.8 -4.92 10.76 -10.8 10.76 s-10.84 -3.96 -10.84 -10.76 l0 -17.84 l5.84 0 l0 17.88 c0 4.08 2.68 5.24 5 5.24 c2.28 0 4.96 -1.16 4.96 -5.24 l0 -17.88 z M40.88 18.88 c3.96 0 7.88 2.6 7.88 9.16 l0 11.96 l-5.72 0 l0 -11.56 c0 -3.4 -1.32 -4.56 -3.52 -4.56 c-3.04 0 -4.84 2.88 -5.28 4.32 l0 11.8 l-5.72 0 l0 -20.8 l5.72 0 l0 3.84 c0.4 -1.08 2.64 -4.16 6.64 -4.16 z M58.36 11.719999999999999 l0 4.88 l-5.72 0 l0 -4.88 l5.72 0 z M58.36 19.2 l0 20.8 l-5.72 0 l0 -20.8 l5.72 0 z M84.76 19.12 l-9.32 20.88 l-5 0 l-9.32 -20.88 l5.72 0 l6.08 14 l6.12 -14 l5.72 0 z M98.08000000000001 18.84 c4.72 0 11.24 3.56 10 12.76 l-15.12 0 c0.72 2.6 2.88 3.96 5.68 3.96 c2.6 0 3.6 -0.6 5.08 -1.4 l3.16 3.08 c-1.8 1.88 -4.36 3.16 -8.44 3.16 c-5.2 0 -11.28 -3.56 -11.28 -10.72 c0 -7.28 6.2 -10.84 10.92 -10.84 z M98.08000000000001 23.72 c-2.08 0 -4.28 1.28 -5.04 3.84 l10 0 c-0.64 -2.56 -2.92 -3.84 -4.96 -3.84 z M124.64 18.88 c0.52 0 1 0 1.52 0.12 l0 5.48 c-0.48 -0.12 -0.96 -0.12 -1.36 -0.12 c-3.84 0 -7 2.76 -7.36 6.76 l0 8.88 l-5.72 0 l0 -20.8 l5.72 0 l0 5.2 c0.92 -3.16 3.44 -5.52 7.2 -5.52 z M139.4 25.439999999999998 c-0.64 -1.48 -1.56 -2.04 -2.68 -2.04 c-1.04 0 -2 0.64 -2 1.56 c0 0.88 0.56 1.44 1.68 1.84 l2.52 0.92 c3.04 1.08 6 2.2 6 6.24 c0 4.16 -4.12 6.52 -8.32 6.52 c-3.8 0 -7.4 -2.24 -8.24 -5.88 l4.52 -1.4 c0.52 1.4 1.64 2.72 3.72 2.72 c1.48 0 2.6 -0.96 2.6 -2 c0 -0.68 -0.48 -1.28 -1.72 -1.76 l-2.4 -0.84 c-4.08 -1.48 -5.96 -3.6 -5.96 -6.44 c0 -3.76 3.48 -6.04 7.36 -6.04 c3.92 0 6.52 2.12 7.72 5.36 z M163.8 19.2 l5.72 0 l0 20.8 l-5.72 0 l0 -2.56 c-0.12 0.84 -2.16 2.96 -5.76 2.96 c-4.76 0 -10.28 -3.44 -10.28 -10.84 c0 -7.16 5.52 -10.72 10.28 -10.72 c3.6 0 5.64 2.24 5.76 2.68 l0 -2.32 z M158.84 35.32 c2.8 0 5.24 -1.92 5.24 -5.76 c0 -3.72 -2.44 -5.64 -5.24 -5.64 c-2.88 0 -5.52 1.96 -5.52 5.64 c0 3.8 2.64 5.76 5.52 5.76 z M179.40000000000003 11.719999999999999 l0 28.28 l-5.72 0 l0 -28.28 l5.72 0 z M207.40000000000003 37 c-2.48 2.24 -5.8 3.4 -9.52 3.4 c-7.84 0 -14.6 -5.88 -14.6 -14.4 s6.76 -14.4 14.6 -14.4 c3.68 0 6.96 1.2 9.36 3.32 l-3.52 3.96 c-1.48 -1.04 -3.48 -1.8 -5.52 -1.8 c-5.04 0 -8.84 3.72 -8.84 8.92 s3.8 8.92 8.84 8.92 c2.12 0 4.2 -0.8 5.72 -2 z M221.12 18.84 c4.72 0 10.88 3.56 10.88 10.84 s-6.16 10.72 -10.88 10.72 s-10.92 -3.44 -10.92 -10.72 s6.2 -10.84 10.92 -10.84 z M221.12 23.92 c-2.6 0 -5.36 1.96 -5.36 5.76 c0 3.68 2.76 5.64 5.36 5.64 c2.56 0 5.36 -1.96 5.36 -5.64 c0 -3.8 -2.8 -5.76 -5.36 -5.76 z M247.84 18.88 c3.96 0 7.88 2.6 7.88 9.16 l0 11.96 l-5.72 0 l0 -11.56 c0 -3.4 -1.32 -4.56 -3.52 -4.56 c-3.04 0 -4.84 2.88 -5.28 4.32 l0 11.8 l-5.72 0 l0 -20.8 l5.72 0 l0 3.84 c0.4 -1.08 2.64 -4.16 6.64 -4.16 z M282.15999999999997 19.12 l-9.32 20.88 l-5 0 l-9.32 -20.88 l5.72 0 l6.08 14 l6.12 -14 l5.72 0 z M295.47999999999996 18.84 c4.72 0 11.24 3.56 10 12.76 l-15.12 0 c0.72 2.6 2.88 3.96 5.68 3.96 c2.6 0 3.6 -0.6 5.08 -1.4 l3.16 3.08 c-1.8 1.88 -4.36 3.16 -8.44 3.16 c-5.2 0 -11.28 -3.56 -11.28 -10.72 c0 -7.28 6.2 -10.84 10.92 -10.84 z M295.47999999999996 23.72 c-2.08 0 -4.28 1.28 -5.04 3.84 l10 0 c-0.64 -2.56 -2.92 -3.84 -4.96 -3.84 z M322.03999999999996 18.88 c0.52 0 1 0 1.52 0.12 l0 5.48 c-0.48 -0.12 -0.96 -0.12 -1.36 -0.12 c-3.84 0 -7 2.76 -7.36 6.76 l0 8.88 l-5.72 0 l0 -20.8 l5.72 0 l0 5.2 c0.92 -3.16 3.44 -5.52 7.2 -5.52 z M336.71999999999997 35.2 c1.08 0 1.88 -0.12 2.76 -0.44 l0 4.8 c-0.88 0.4 -2.24 0.68 -4.24 0.68 c-3.24 0 -5.96 -1.12 -5.96 -7 l0 -9.32 l-2.92 0 l0 -4.72 l2.92 0 l0 -4.88 l5.72 0 l0 4.88 l4.44 0 l0 4.72 l-4.44 0 l0 9.28 c0 0.96 0.28 2 1.72 2 z M353.15999999999997 18.84 c4.72 0 11.24 3.56 10 12.76 l-15.12 0 c0.72 2.6 2.88 3.96 5.68 3.96 c2.6 0 3.6 -0.6 5.08 -1.4 l3.16 3.08 c-1.8 1.88 -4.36 3.16 -8.44 3.16 c-5.2 0 -11.28 -3.56 -11.28 -10.72 c0 -7.28 6.2 -10.84 10.92 -10.84 z M353.15999999999997 23.72 c-2.08 0 -4.28 1.28 -5.04 3.84 l10 0 c-0.64 -2.56 -2.92 -3.84 -4.96 -3.84 z M379.71999999999997 18.88 c0.52 0 1 0 1.52 0.12 l0 5.48 c-0.48 -0.12 -0.96 -0.12 -1.36 -0.12 c-3.84 0 -7 2.76 -7.36 6.76 l0 8.88 l-5.72 0 l0 -20.8 l5.72 0 l0 5.2 c0.92 -3.16 3.44 -5.52 7.2 -5.52 z"></path></g></svg>